<mxfile host="app.diagrams.net" agent="Mozilla/5.0 (Windows NT 10.0; Win64; x64) AppleWebKit/537.36 (KHTML, like Gecko) Chrome/138.0.0.0 Safari/537.36" version="28.0.7">
  <diagram id="-e2mnu2Ps753K27qpepR" name="Page-1">
    <mxGraphModel dx="2152" dy="1450" grid="1" gridSize="10" guides="1" tooltips="1" connect="1" arrows="1" fold="1" page="1" pageScale="1" pageWidth="1169" pageHeight="827" math="0" shadow="0">
      <root>
        <mxCell id="0" />
        <mxCell id="1" parent="0" />
        <mxCell id="gMjKZno37h58PNrXdN7v-17" style="edgeStyle=orthogonalEdgeStyle;rounded=0;orthogonalLoop=1;jettySize=auto;html=1;exitX=0.5;exitY=1;exitDx=0;exitDy=0;entryX=0.5;entryY=0;entryDx=0;entryDy=0;" parent="1" source="t-EZEA_os1hMHmpOI-8m-1" target="gMjKZno37h58PNrXdN7v-4" edge="1">
          <mxGeometry relative="1" as="geometry" />
        </mxCell>
        <mxCell id="t-EZEA_os1hMHmpOI-8m-1" value="" style="shape=image;html=1;verticalAlign=top;verticalLabelPosition=bottom;labelBackgroundColor=#ffffff;imageAspect=0;aspect=fixed;image=https://cdn4.iconfinder.com/data/icons/ionicons/512/icon-social-github-128.png" parent="1" vertex="1">
          <mxGeometry x="510" y="-40" width="100" height="100" as="geometry" />
        </mxCell>
        <mxCell id="gMjKZno37h58PNrXdN7v-4" value="" style="rounded=1;whiteSpace=wrap;html=1;fillColor=#ffe6cc;shadow=0;glass=0;strokeColor=#d79b00;" parent="1" vertex="1">
          <mxGeometry x="410" y="116" width="300" height="244" as="geometry" />
        </mxCell>
        <mxCell id="gMjKZno37h58PNrXdN7v-5" value="" style="sketch=0;points=[[0,0,0],[0.25,0,0],[0.5,0,0],[0.75,0,0],[1,0,0],[0,1,0],[0.25,1,0],[0.5,1,0],[0.75,1,0],[1,1,0],[0,0.25,0],[0,0.5,0],[0,0.75,0],[1,0.25,0],[1,0.5,0],[1,0.75,0]];outlineConnect=0;fontColor=#232F3E;fillColor=#ED7100;strokeColor=#ffffff;dashed=0;verticalLabelPosition=bottom;verticalAlign=top;align=center;html=1;fontSize=12;fontStyle=0;aspect=fixed;shape=mxgraph.aws4.resourceIcon;resIcon=mxgraph.aws4.ec2;" parent="1" vertex="1">
          <mxGeometry x="430" y="122" width="40" height="40" as="geometry" />
        </mxCell>
        <mxCell id="gMjKZno37h58PNrXdN7v-6" value="" style="rounded=1;whiteSpace=wrap;html=1;fillColor=#dae8fc;strokeColor=#6c8ebf;" parent="1" vertex="1">
          <mxGeometry x="435" y="166" width="250" height="180" as="geometry" />
        </mxCell>
        <mxCell id="gMjKZno37h58PNrXdN7v-7" value="" style="rounded=1;whiteSpace=wrap;html=1;fillColor=#f8cecc;strokeColor=#b85450;" parent="1" vertex="1">
          <mxGeometry x="455" y="220" width="210" height="106" as="geometry" />
        </mxCell>
        <mxCell id="gMjKZno37h58PNrXdN7v-8" value="" style="image;sketch=0;aspect=fixed;html=1;points=[];align=center;fontSize=12;image=img/lib/mscae/Docker.svg;" parent="1" vertex="1">
          <mxGeometry x="440" y="176" width="50" height="41" as="geometry" />
        </mxCell>
        <mxCell id="gMjKZno37h58PNrXdN7v-9" value="" style="shape=image;verticalLabelPosition=bottom;labelBackgroundColor=default;verticalAlign=top;aspect=fixed;imageAspect=0;image=data:image/svg+xml,PHN2ZyB4bWxucz0iaHR0cDovL3d3dy53My5vcmcvMjAwMC9zdmciIHZpZXdCb3g9IjAgMCAxMjggMTI4Ij48bGluZWFyR3JhZGllbnQgZ3JhZGllbnRUcmFuc2Zvcm09Im1hdHJpeCguNTYzIDAgMCAtLjU2OCAtMjkuMjE1IDcwNy44MTcpIiB5Mj0iMTE1MS4wODkiIHgyPSIxNzAuNjU5IiB5MT0iMTIzNy40NzYiIHgxPSI3MC4yNTIiIGdyYWRpZW50VW5pdHM9InVzZXJTcGFjZU9uVXNlIiBpZD0icHl0aG9uLW9yaWdpbmFsLWEiPjxzdG9wIHN0b3AtY29sb3I9IiM1QTlGRDQiIG9mZnNldD0iMCIvPjxzdG9wIHN0b3AtY29sb3I9IiMzMDY5OTgiIG9mZnNldD0iMSIvPjwvbGluZWFyR3JhZGllbnQ+PGxpbmVhckdyYWRpZW50IGdyYWRpZW50VHJhbnNmb3JtPSJtYXRyaXgoLjU2MyAwIDAgLS41NjggLTI5LjIxNSA3MDcuODE3KSIgeTI9IjExNDkuNTM3IiB4Mj0iMTczLjYyIiB5MT0iMTA5OC44MTEiIHgxPSIyMDkuNDc0IiBncmFkaWVudFVuaXRzPSJ1c2VyU3BhY2VPblVzZSIgaWQ9InB5dGhvbi1vcmlnaW5hbC1iIj48c3RvcCBzdG9wLWNvbG9yPSIjRkZENDNCIiBvZmZzZXQ9IjAiLz48c3RvcCBzdG9wLWNvbG9yPSIjRkZFODczIiBvZmZzZXQ9IjEiLz48L2xpbmVhckdyYWRpZW50PjxwYXRoIHRyYW5zZm9ybT0idHJhbnNsYXRlKDAgMTAuMjYpIiBkPSJNNjMuMzkxIDEuOTg4Yy00LjIyMi4wMi04LjI1Mi4zNzktMTEuOCAxLjAwNy0xMC40NSAxLjg0Ni0xMi4zNDYgNS43MS0xMi4zNDYgMTIuODM3djkuNDExaDI0LjY5M3YzLjEzN0gyOS45NzdjLTcuMTc2IDAtMTMuNDYgNC4zMTMtMTUuNDI2IDEyLjUyMS0yLjI2OCA5LjQwNS0yLjM2OCAxNS4yNzUgMCAyNS4wOTYgMS43NTUgNy4zMTEgNS45NDcgMTIuNTE5IDEzLjEyNCAxMi41MTloOC40OTFWNjcuMjM0YzAtOC4xNTEgNy4wNTEtMTUuMzQgMTUuNDI2LTE1LjM0aDI0LjY2NWM2Ljg2NiAwIDEyLjM0Ni01LjY1NCAxMi4zNDYtMTIuNTQ4VjE1LjgzM2MwLTYuNjkzLTUuNjQ2LTExLjcyLTEyLjM0Ni0xMi44MzctNC4yNDQtLjcwNi04LjY0NS0xLjAyNy0xMi44NjYtMS4wMDh6TTUwLjAzNyA5LjU1N2MyLjU1IDAgNC42MzQgMi4xMTcgNC42MzQgNC43MjEgMCAyLjU5My0yLjA4MyA0LjY5LTQuNjM0IDQuNjktMi41NiAwLTQuNjMzLTIuMDk3LTQuNjMzLTQuNjktLjAwMS0yLjYwNCAyLjA3My00LjcyMSA0LjYzMy00LjcyMXoiIGZpbGw9InVybCgjcHl0aG9uLW9yaWdpbmFsLWEpIi8+PHBhdGggdHJhbnNmb3JtPSJ0cmFuc2xhdGUoMCAxMC4yNikiIGQ9Ik05MS42ODIgMjguMzh2MTAuOTY2YzAgOC41LTcuMjA4IDE1LjY1NS0xNS40MjYgMTUuNjU1SDUxLjU5MWMtNi43NTYgMC0xMi4zNDYgNS43ODMtMTIuMzQ2IDEyLjU0OXYyMy41MTVjMCA2LjY5MSA1LjgxOCAxMC42MjggMTIuMzQ2IDEyLjU0NyA3LjgxNiAyLjI5NyAxNS4zMTIgMi43MTMgMjQuNjY1IDAgNi4yMTYtMS44MDEgMTIuMzQ2LTUuNDIzIDEyLjM0Ni0xMi41NDd2LTkuNDEySDYzLjkzOHYtMy4xMzhoMzcuMDEyYzcuMTc2IDAgOS44NTItNS4wMDUgMTIuMzQ4LTEyLjUxOSAyLjU3OC03LjczNSAyLjQ2Ny0xNS4xNzQgMC0yNS4wOTYtMS43NzQtNy4xNDUtNS4xNjEtMTIuNTIxLTEyLjM0OC0xMi41MjFoLTkuMjY4ek03Ny44MDkgODcuOTI3YzIuNTYxIDAgNC42MzQgMi4wOTcgNC42MzQgNC42OTIgMCAyLjYwMi0yLjA3NCA0LjcxOS00LjYzNCA0LjcxOS0yLjU1IDAtNC42MzMtMi4xMTctNC42MzMtNC43MTkgMC0yLjU5NSAyLjA4My00LjY5MiA0LjYzMy00LjY5MnoiIGZpbGw9InVybCgjcHl0aG9uLW9yaWdpbmFsLWIpIi8+PHJhZGlhbEdyYWRpZW50IGdyYWRpZW50VW5pdHM9InVzZXJTcGFjZU9uVXNlIiBncmFkaWVudFRyYW5zZm9ybT0ibWF0cml4KDAgLS4yNCAtMS4wNTUgMCA1MzIuOTc5IDU1Ny41NzYpIiByPSIyNi43NDMiIGN5PSI0NDQuNDUiIGN4PSIxODI1LjY3OCIgaWQ9InB5dGhvbi1vcmlnaW5hbC1jIj48c3RvcCBzdG9wLW9wYWNpdHk9Ii40OTgiIHN0b3AtY29sb3I9IiNCOEI4QjgiIG9mZnNldD0iMCIvPjxzdG9wIHN0b3Atb3BhY2l0eT0iMCIgc3RvcC1jb2xvcj0iIzdGN0Y3RiIgb2Zmc2V0PSIxIi8+PC9yYWRpYWxHcmFkaWVudD48cGF0aCBkPSJNOTcuMzA5IDExOS41OTdjMCAzLjU0My0xNC44MTYgNi40MTYtMzMuMDkxIDYuNDE2LTE4LjI3NiAwLTMzLjA5Mi0yLjg3My0zMy4wOTItNi40MTYgMC0zLjU0NCAxNC44MTUtNi40MTcgMzMuMDkyLTYuNDE3IDE4LjI3NSAwIDMzLjA5MSAyLjg3MiAzMy4wOTEgNi40MTd6IiBmaWxsPSJ1cmwoI3B5dGhvbi1vcmlnaW5hbC1jKSIgb3BhY2l0eT0iLjQ0NCIvPjwvc3ZnPg==;shadow=1;" parent="1" vertex="1">
          <mxGeometry x="480" y="234.5" width="43" height="43" as="geometry" />
        </mxCell>
        <mxCell id="gMjKZno37h58PNrXdN7v-10" value="" style="sketch=0;points=[[0,0,0],[0.25,0,0],[0.5,0,0],[0.75,0,0],[1,0,0],[0,1,0],[0.25,1,0],[0.5,1,0],[0.75,1,0],[1,1,0],[0,0.25,0],[0,0.5,0],[0,0.75,0],[1,0.25,0],[1,0.5,0],[1,0.75,0]];outlineConnect=0;fontColor=#232F3E;fillColor=#01A88D;strokeColor=#ffffff;dashed=0;verticalLabelPosition=bottom;verticalAlign=top;align=center;html=1;fontSize=12;fontStyle=0;aspect=fixed;shape=mxgraph.aws4.resourceIcon;resIcon=mxgraph.aws4.bedrock;shadow=1;" parent="1" vertex="1">
          <mxGeometry x="570" y="234.5" width="41.5" height="41.5" as="geometry" />
        </mxCell>
        <mxCell id="gMjKZno37h58PNrXdN7v-11" value="" style="rounded=1;whiteSpace=wrap;html=1;fillColor=none;" parent="1" vertex="1">
          <mxGeometry x="120" y="126" width="180" height="224" as="geometry" />
        </mxCell>
        <mxCell id="gMjKZno37h58PNrXdN7v-12" value="" style="rounded=1;whiteSpace=wrap;html=1;fillColor=#e1d5e7;strokeColor=#9673a6;" parent="1" vertex="1">
          <mxGeometry x="135" y="160" width="150" height="170" as="geometry" />
        </mxCell>
        <mxCell id="gMjKZno37h58PNrXdN7v-13" value="" style="shape=image;verticalLabelPosition=bottom;labelBackgroundColor=default;verticalAlign=top;aspect=fixed;imageAspect=0;editableCssRules=.*;image=data:image/svg+xml,PHN2ZyB4bWxucz0iaHR0cDovL3d3dy53My5vcmcvMjAwMC9zdmciIHZpZXdCb3g9IjEgNTAuNSAxMjUuNDI0OTk1NDIyMzYzMjggMjYuNSIgd2lkdGg9IjEyNS40MjQ5OTU0MjIzNjMyOCIgaGVpZ2h0PSIyNi41Ij48cGF0aCBmaWxsPSIjMDkwIiBkPSJNMjQuNSA1MC41Yy0xLjUgMC0yLjUgMS4yLTIuNSAyLjd2MTQuMWwtMTUuOS0xNmMtLjgtLjgtMi4yLTEtMy4yLS42UzEgNTIuMSAxIDUzLjJ2MjAuN2MwIDEuNSAxLjUgMi43IDMgMi43czMtMS4yIDMtMi43VjU5LjhsMTYuMSAxNmMuNS41IDEuMi44IDEuOS44LjMgMCAuNC0uMS43LS4yIDEtLjQgMS4zLTEuNCAxLjMtMi41VjUzLjNjMC0xLjUtMS0yLjgtMi41LTIuOHptMTkuNyAxMS44Yy0xLjQgMC0yLjcgMS40LTIuNyAyLjhzMS4zIDIuOCAyLjcgMi44bDYuNi40LTEuNSAzLjdoLTguNWwtNC4yLTcuOSA0LjMtOC4xSDUwbDIuMSA0aDUuNUw1NCA1Mi4xbC0uOC0xLjFIMzcuNmwtLjcgMS4yTDMxIDYyLjVsLS43IDEuMy43IDEuMyA1LjggMTAuMy44IDEuNmgxNS4xbC43LTEuNyA0LjMtOSAxLjktNC4zaC00LjRsLTExIC4zek02NSA1MC41Yy0xLjQgMC0zIDEuMy0zIDIuN1Y2MGg2di02LjdjMC0xLjUtMS42LTIuOC0zLTIuOHptMzAuNC4zYy0xLS40LTIuNC0uMi0zLjEuNkw3NiA2Ny40VjUzLjNjMC0xLjUtMS0yLjctMi41LTIuN1M3MSA1MS44IDcxIDUzLjNWNzRjMCAxLjEuNyAyLjEgMS43IDIuNS4zLjEuNy4yIDEgLjIuNyAwIDEuNi0uMyAyLjEtLjhsMTYuMi0xNlY3NGMwIDEuNSAxIDIuNyAyLjUgMi43Uzk3IDc1LjUgOTcgNzRWNTMuM2MwLTEuMS0uNi0yLjEtMS42LTIuNXptMjEuOCAxMi44bDguNC04LjRjMS4xLTEuMSAxLjEtMi44IDAtMy44LTEuMS0xLjEtMi44LTEuMS0zLjggMGwtOC40IDguNC04LjQtOC40Yy0xLjEtMS4xLTIuOC0xLjEtMy44IDAtMS4xIDEuMS0xLjEgMi44IDAgMy44bDguNCA4LjQtOC40IDguNGMtMS4xIDEuMS0xLjEgMi44IDAgMy44LjUuNSAxLjIuOCAxLjkuOHMxLjQtLjMgMS45LS44bDguNC04LjQgOC40IDguNGMuNS41IDEuMi44IDEuOS44czEuNC0uMyAxLjktLjhjMS4xLTEuMSAxLjEtMi44IDAtMy44bC04LjQtOC40ek02MiA3My45YzAgMS40IDEuNSAyLjcgMyAyLjcgMS40IDAgMy0xLjMgMy0yLjdWNjJoLTZ2MTEuOXoiLz48L3N2Zz4=;" parent="1" vertex="1">
          <mxGeometry x="142.5" y="170" width="125" height="27" as="geometry" />
        </mxCell>
        <mxCell id="gMjKZno37h58PNrXdN7v-35" style="edgeStyle=orthogonalEdgeStyle;rounded=0;orthogonalLoop=1;jettySize=auto;html=1;exitX=1;exitY=0.25;exitDx=0;exitDy=0;entryX=0;entryY=0.25;entryDx=0;entryDy=0;" parent="1" source="gMjKZno37h58PNrXdN7v-14" target="gMjKZno37h58PNrXdN7v-7" edge="1">
          <mxGeometry relative="1" as="geometry" />
        </mxCell>
        <mxCell id="gMjKZno37h58PNrXdN7v-14" value="User Interface" style="rounded=1;whiteSpace=wrap;html=1;fillColor=#d5e8d4;strokeColor=#82b366;" parent="1" vertex="1">
          <mxGeometry x="147.5" y="209.5" width="120" height="92" as="geometry" />
        </mxCell>
        <mxCell id="gMjKZno37h58PNrXdN7v-19" value="Running&amp;nbsp;&lt;br&gt;EC2 Instance" style="text;html=1;align=center;verticalAlign=middle;resizable=0;points=[];autosize=1;strokeColor=none;fillColor=none;" parent="1" vertex="1">
          <mxGeometry x="460" y="122" width="100" height="40" as="geometry" />
        </mxCell>
        <mxCell id="gMjKZno37h58PNrXdN7v-20" value="Running&amp;nbsp;&lt;br&gt;Docker Containers" style="text;html=1;align=center;verticalAlign=middle;resizable=0;points=[];autosize=1;strokeColor=none;fillColor=none;" parent="1" vertex="1">
          <mxGeometry x="491.5" y="176" width="120" height="40" as="geometry" />
        </mxCell>
        <mxCell id="gMjKZno37h58PNrXdN7v-36" style="edgeStyle=orthogonalEdgeStyle;rounded=0;orthogonalLoop=1;jettySize=auto;html=1;entryX=1;entryY=0.75;entryDx=0;entryDy=0;" parent="1" source="gMjKZno37h58PNrXdN7v-21" target="gMjKZno37h58PNrXdN7v-14" edge="1">
          <mxGeometry relative="1" as="geometry" />
        </mxCell>
        <mxCell id="gMjKZno37h58PNrXdN7v-21" value="Python with&amp;nbsp;&lt;br&gt;Falsk" style="text;html=1;align=center;verticalAlign=middle;resizable=0;points=[];autosize=1;strokeColor=none;fillColor=none;" parent="1" vertex="1">
          <mxGeometry x="455" y="286" width="90" height="40" as="geometry" />
        </mxCell>
        <mxCell id="gMjKZno37h58PNrXdN7v-22" value="Trained &lt;br&gt;ML model" style="text;html=1;align=center;verticalAlign=middle;resizable=0;points=[];autosize=1;strokeColor=none;fillColor=none;" parent="1" vertex="1">
          <mxGeometry x="550.75" y="286" width="80" height="40" as="geometry" />
        </mxCell>
        <mxCell id="gMjKZno37h58PNrXdN7v-23" value="+" style="text;html=1;align=center;verticalAlign=middle;resizable=0;points=[];autosize=1;strokeColor=none;fillColor=none;fontStyle=1" parent="1" vertex="1">
          <mxGeometry x="530" y="241" width="30" height="30" as="geometry" />
        </mxCell>
        <mxCell id="gMjKZno37h58PNrXdN7v-24" value="Browser&lt;div&gt;&lt;br&gt;&lt;/div&gt;" style="text;html=1;align=center;verticalAlign=middle;resizable=0;points=[];autosize=1;strokeColor=none;fillColor=none;" parent="1" vertex="1">
          <mxGeometry x="170" y="126" width="70" height="40" as="geometry" />
        </mxCell>
        <mxCell id="gMjKZno37h58PNrXdN7v-27" value="" style="points=[];aspect=fixed;html=1;align=center;shadow=0;dashed=0;fillColor=#FF6A00;strokeColor=none;shape=mxgraph.alibaba_cloud.user;" parent="1" vertex="1">
          <mxGeometry x="-47.5" y="226.75" width="65" height="65" as="geometry" />
        </mxCell>
        <mxCell id="gMjKZno37h58PNrXdN7v-28" value="User" style="text;html=1;align=center;verticalAlign=middle;resizable=0;points=[];autosize=1;strokeColor=none;fillColor=none;" parent="1" vertex="1">
          <mxGeometry x="-40" y="291.75" width="50" height="30" as="geometry" />
        </mxCell>
        <mxCell id="gMjKZno37h58PNrXdN7v-30" style="edgeStyle=orthogonalEdgeStyle;rounded=0;orthogonalLoop=1;jettySize=auto;html=1;" parent="1" source="gMjKZno37h58PNrXdN7v-27" edge="1">
          <mxGeometry relative="1" as="geometry">
            <mxPoint x="150" y="259" as="targetPoint" />
          </mxGeometry>
        </mxCell>
        <mxCell id="gMjKZno37h58PNrXdN7v-31" value="&lt;span style=&quot;font-size: 11px; background-color: rgb(255, 255, 255);&quot;&gt;Source code&amp;nbsp;&lt;/span&gt;&lt;br style=&quot;font-size: 11px;&quot;&gt;&lt;span style=&quot;font-size: 11px; background-color: rgb(255, 255, 255);&quot;&gt;Pull from GitHub&lt;/span&gt;" style="text;html=1;align=center;verticalAlign=middle;resizable=0;points=[];autosize=1;strokeColor=none;fillColor=none;" parent="1" vertex="1">
          <mxGeometry x="560" y="70" width="100" height="40" as="geometry" />
        </mxCell>
        <mxCell id="gMjKZno37h58PNrXdN7v-32" value="User Input" style="text;html=1;align=center;verticalAlign=middle;resizable=0;points=[];autosize=1;strokeColor=none;fillColor=none;" parent="1" vertex="1">
          <mxGeometry x="30" y="230" width="80" height="30" as="geometry" />
        </mxCell>
        <mxCell id="gMjKZno37h58PNrXdN7v-37" value="Request&amp;nbsp;&lt;div&gt;to predict&lt;/div&gt;" style="text;html=1;align=center;verticalAlign=middle;resizable=0;points=[];autosize=1;strokeColor=none;fillColor=none;" parent="1" vertex="1">
          <mxGeometry x="320" y="186.75" width="70" height="40" as="geometry" />
        </mxCell>
        <mxCell id="gMjKZno37h58PNrXdN7v-38" value="Predicted&amp;nbsp;&lt;div&gt;Response&lt;/div&gt;" style="text;html=1;align=center;verticalAlign=middle;resizable=0;points=[];autosize=1;strokeColor=none;fillColor=none;" parent="1" vertex="1">
          <mxGeometry x="310" y="310" width="80" height="40" as="geometry" />
        </mxCell>
        <mxCell id="2wIXZsmMzI_JdzqFUiE4-2" value="&lt;font style=&quot;font-size: 19px;&quot;&gt;&lt;b&gt;Deployed Application Usage Architecture&lt;/b&gt;&lt;/font&gt;" style="text;html=1;align=center;verticalAlign=middle;resizable=0;points=[];autosize=1;strokeColor=none;fillColor=none;" vertex="1" parent="1">
          <mxGeometry x="155" y="409" width="400" height="40" as="geometry" />
        </mxCell>
        <mxCell id="2wIXZsmMzI_JdzqFUiE4-3" value="&lt;font style=&quot;font-size: 15px;&quot;&gt;&lt;b&gt;Client&lt;/b&gt;&lt;/font&gt;" style="text;html=1;align=center;verticalAlign=middle;resizable=0;points=[];autosize=1;strokeColor=none;fillColor=none;" vertex="1" parent="1">
          <mxGeometry x="170" y="360" width="70" height="30" as="geometry" />
        </mxCell>
        <mxCell id="2wIXZsmMzI_JdzqFUiE4-4" value="&lt;font style=&quot;font-size: 15px;&quot;&gt;&lt;b&gt;Server&lt;/b&gt;&lt;/font&gt;" style="text;html=1;align=center;verticalAlign=middle;resizable=0;points=[];autosize=1;strokeColor=none;fillColor=none;" vertex="1" parent="1">
          <mxGeometry x="516.5" y="368" width="70" height="30" as="geometry" />
        </mxCell>
      </root>
    </mxGraphModel>
  </diagram>
</mxfile>
